<svg viewBox="0 0 32 29" xmlns="http://www.w3.org/2000/svg"><path fill="#0066FF" d="M.625 0C.28 0 0 .28 0 .625c0 .344.28.625.625.625h5.74l4.848 20.803c.08.272.35.442.644.44.007 0 .012.005.018.005h14.842c.122.026.243.007.35-.04.028-.008.054-.015.078-.026l.005-.004c.205-.103.35-.31.35-.555 0-.015-.007-.026-.008-.04l3.764-13.538c.087-.345-.107-.7-.436-.793-.093-.026-.186-.023-.275-.004H22.5V8.75h7.348l-3.477 12.5H12.388L9.475 8.75h6.775V7.498H9.375c-.065 0-.125.02-.184.04L7.54.444c-.08-.273-.352-.442-.647-.44C6.886.004 6.88 0 6.875 0H.625zm18.75 3.748c-.344 0-.625.28-.625.625v12.15l-3.846-3.845c-.27-.27-.707-.27-.974 0-.27.267-.27.704 0 .974l4.875 4.877c.092.092.207.14.326.17.076.03.16.05.245.05.086 0 .17-.018.244-.05.118-.03.233-.077.325-.17l4.877-4.878c.27-.27.27-.707 0-.974-.268-.27-.704-.27-.974 0L20 16.525V4.373c0-.344-.28-.625-.625-.625zm-6.25 21.25c-1.035 0-1.875.84-1.875 1.875 0 1.036.84 1.875 1.875 1.875 1.036 0 1.875-.84 1.875-1.875 0-1.036-.84-1.875-1.875-1.875zm10 0c-1.035 0-1.875.84-1.875 1.875 0 1.036.84 1.875 1.875 1.875 1.036 0 1.875-.84 1.875-1.875 0-1.036-.84-1.875-1.875-1.875z"/></svg>
