<svg viewBox="0 0 32 29" xmlns="http://www.w3.org/2000/svg"><path fill="#333" d="M26.365 21.232H12.38l-2.913-12.5H29.84l-3.475 12.5zm4.45-13.747c-.094-.026-.188-.023-.276-.004H9.37c-.066 0-.126.02-.185.04L7.532.43c-.08-.275-.35-.445-.647-.444-.005 0-.01-.004-.016-.004H.62c-.346 0-.625.28-.625.625 0 .344.28.625.624.625h5.74l4.845 20.804c.08.272.35.442.646.44.007 0 .012.005.02.005h14.84c.124.027.242.008.35-.038.027-.01.054-.016.077-.027l.008-.005c.205-.103.35-.31.35-.554 0-.015-.01-.026-.01-.04l3.765-13.54c.087-.344-.106-.7-.435-.79M13.12 24.98c-1.036 0-1.876.84-1.876 1.876s.84 1.875 1.875 1.875c1.035 0 1.874-.838 1.874-1.874s-.84-1.875-1.875-1.875m10 0c-1.036 0-1.876.84-1.876 1.876s.84 1.875 1.875 1.875c1.035 0 1.874-.838 1.874-1.874s-.84-1.875-1.875-1.875"/></svg>