<svg version="1.1" id="Layer_1" xmlns="http://www.w3.org/2000/svg" xmlns:xlink="http://www.w3.org/1999/xlink" x="0px" y="0px" viewBox="0 0 364 160.1" style="enable-background:new 0 0 364 160.1;" xml:space="preserve">
	<polygon points="92.4,0 90.2,0 64.8,67.1 56.6,67.1 56.6,67.1 56,67.1 38.6,117.6 38.4,117.6 21.1,67.1 0,67.1 0,68.5 10.4,68.5 10.4,132.6 0,132.6 0,133.9 22.2,133.9 22.2,132.6 11.8,132.6 11.8,69.7 12,69.7 34.3,134 56.7,69 56.9,69 56.9,132.6 46.5,132.6 46.5,133.9 76.7,133.9 76.7,132.6 66.3,132.6 66.3,68.5 76.7,68.5 76.7,68.4 76.8,68.4 76.8,67.1 66.3,67.1 87.1,12.5 107.8,67.1 97.4,67.1 97.4,68.4 126.3,68.4 126.3,67.1 117.9,67.1 	"></polygon>
	<path d="M152.1,67.1H144V45.7c0-2.6,0.3-5,1-7c0.7-2,1.5-3.8,2.4-5.2c1-1.4,2-2.5,3.1-3.3s2.2-1.1,3.2-1.1c2.2,0,3.3,1,3.3,3c0,0.8-0.1,1.4-0.2,1.9c-0.1,0.4-0.3,0.8-0.4,1.2c-0.2,0.3-0.3,0.7-0.4,1c-0.1,0.3-0.2,0.8-0.2,1.4c0,1.8,1.4,2.6,4.1,2.6c1.2,0,2.3-0.3,3.3-1c0.9-0.7,1.4-2.1,1.4-4.1c0-0.9-0.2-1.9-0.5-2.8c-0.3-0.9-0.8-1.8-1.5-2.5c-0.7-0.7-1.6-1.3-2.6-1.8c-1.1-0.5-2.3-0.7-3.8-0.7c-2,0-3.7,0.4-5.1,1.1s-2.6,1.7-3.6,2.8c-1,1.1-1.8,2.2-2.3,3.4c-0.6,1.2-1,2.2-1.2,3.2h-0.2v-9.5h-15.1v1.3h7.2v37.6h-7.2v1.3h23.4V67.1z"></path>
	<path d="M190.4,68.9c1.2-0.6,2.3-1.3,3-2.2c0.8-0.9,1.4-1.9,1.7-2.9c0.4-1,0.7-1.9,0.8-2.7l-1.3-0.5c-0.4,2.1-1.2,3.9-2.6,5.5c-1.3,1.6-3.1,2.4-5.3,2.4c-0.6,0-1.3-0.1-1.9-0.3s-1.3-0.6-1.8-1.2c-0.6-0.6-1-1.4-1.4-2.5c-0.3-1.1-0.5-2.5-0.5-4.3V29.5h13.3v-1.3h-13.3V15.4c-0.6,0.5-1.3,0.9-2,1.1c-0.7,0.2-1.5,0.3-2.4,0.3c-1.1,0-1.8-0.1-2.2-0.2c-0.4-0.1-0.9-0.3-1.4-0.5v12.1h-7.2v1.3h7.2v29.8c0,3.3,0.9,5.9,2.8,7.7c1.8,1.8,5.1,2.7,9.8,2.7C187.6,69.8,189.1,69.5,190.4,68.9z"></path>
	<polygon points="213.4,28.2 198.2,28.2 198.2,29.5 205.4,29.5 205.4,67.1 198.2,67.1 198.2,68.4 220.7,68.4 220.7,67.1 213.4,67.1 "></polygon>
	<path d="M209.2,16.3c1.4,0,2.5-0.5,3.5-1.5c1-1,1.5-2.1,1.5-3.5c0-1.4-0.5-2.5-1.5-3.5c-1-1-2.1-1.5-3.5-1.5c-1.4,0-2.5,0.5-3.5,1.5c-1,1-1.5,2.1-1.5,3.5c0,1.4,0.5,2.5,1.5,3.5C206.7,15.9,207.8,16.3,209.2,16.3z"></path>
	<path d="M248.6,45.4l-6.8-2.2c-2.8-0.9-4.8-1.8-6.2-2.9s-2.1-2.5-2.1-4.5c0-2.2,0.8-4,2.5-5.4c1.7-1.3,4-2,7-2c1.6,0,2.9,0.3,4.1,0.8c1.2,0.6,2.1,1.3,2.9,2.3c0.8,1,1.5,2.1,2,3.4c0.6,1.3,1.1,2.6,1.5,4h1V28.2h-1c-0.3,0.5-0.8,0.8-1.5,0.8c-0.7,0-1.3-0.1-1.8-0.3c-0.5-0.2-1.1-0.4-1.7-0.7c-0.6-0.2-1.4-0.4-2.2-0.7c-0.8-0.2-2-0.3-3.3-0.3c-1.9,0-3.7,0.3-5.4,0.9c-1.7,0.6-3.1,1.5-4.3,2.6c-1.2,1.1-2.1,2.4-2.8,3.9c-0.7,1.5-1,3.1-1,4.9c0,2.1,0.3,3.8,0.9,5.1c0.6,1.3,1.4,2.4,2.3,3.2s2,1.5,3,2c1.1,0.5,2.1,0.9,3,1.2l7.3,2.5c1.6,0.6,3,1.3,4.3,2.3c1.2,1,1.8,2.6,1.8,5c0,2.8-0.8,4.7-2.3,6c-1.6,1.2-3.3,1.8-5.3,1.8c-2.4,0-4.4-0.4-6.1-1.2c-1.7-0.8-3.1-1.9-4.3-3.1c-1.2-1.3-2.1-2.7-2.8-4.2c-0.7-1.5-1.3-3-1.7-4.5h-1v13.1h1c0.2-0.3,0.4-0.6,0.8-0.9c0.3-0.3,0.8-0.4,1.5-0.4c0.7,0,1.4,0.1,2.2,0.4c0.8,0.3,1.7,0.6,2.7,0.9c1,0.3,2,0.6,3.2,0.9c1.2,0.3,2.4,0.4,3.8,0.4c2.4,0,4.5-0.4,6.3-1.1c1.8-0.8,3.4-1.7,4.7-3c1.3-1.2,2.2-2.6,2.9-4.3c0.7-1.6,1-3.3,1-5c0-2.9-0.9-5.2-2.8-6.9C253.9,47.8,251.5,46.4,248.6,45.4z"></path>
	<path d="M291,66c-1.3,1.6-3.1,2.4-5.3,2.4c-0.6,0-1.3-0.1-1.9-0.3s-1.3-0.6-1.8-1.2c-0.6-0.6-1-1.4-1.4-2.5c-0.3-1.1-0.5-2.5-0.5-4.3V29.5h13.3v-1.3h-13.3V15.4c-0.6,0.5-1.3,0.9-2,1.1c-0.7,0.2-1.5,0.3-2.4,0.3c-1.1,0-1.8-0.1-2.2-0.2c-0.4-0.1-0.9-0.3-1.4-0.5v12.1h-7.2v1.3h7.2v29.8c0,3.3,0.9,5.9,2.8,7.7c1.8,1.8,5.1,2.7,9.8,2.7c1.9,0,3.4-0.3,4.7-0.9c1.2-0.6,2.3-1.3,3-2.2c0.8-0.9,1.4-1.9,1.7-2.9c0.4-1,0.7-1.9,0.8-2.7l-1.3-0.5C293.2,62.6,292.4,64.5,291,66z"></path>
	<path d="M308.1,16.3c1.4,0,2.5-0.5,3.5-1.5c1-1,1.5-2.1,1.5-3.5c0-1.4-0.5-2.5-1.5-3.5c-1-1-2.1-1.5-3.5-1.5c-1.4,0-2.5,0.5-3.5,1.5c-1,1-1.5,2.1-1.5,3.5c0,1.4,0.5,2.5,1.5,3.5C305.6,15.9,306.7,16.3,308.1,16.3z"></path>
	<polygon points="312.3,28.2 297.1,28.2 297.1,29.5 304.3,29.5 304.3,67.1 297.1,67.1 297.1,68.4 319.6,68.4 319.6,67.1 312.3,67.1 "></polygon>
	<path d="M362.6,57.8c-0.3,0.8-0.6,1.7-1.1,2.9c-0.5,1.2-1.3,2.4-2.3,3.5c-1,1.2-2.4,2.1-4.2,3c-1.8,0.8-4,1.2-6.8,1.2c-2.6,0-4.6-0.5-6.2-1.5s-2.8-2.4-3.8-4.2c-0.9-1.8-1.5-3.9-1.9-6.2c-0.3-2.4-0.5-4.9-0.5-7.6c0-4.7,0.4-8.5,1.2-11.2c0.8-2.8,1.8-4.8,3-6.2c1.2-1.4,2.6-2.2,4-2.6c1.5-0.3,2.9-0.5,4.3-0.5c1.9,0,3.5,0.4,5,1.2c1.4,0.8,2.2,1.9,2.2,3.3c0,0.8-0.2,1.8-0.7,3.1c-0.4,1.3-0.7,2.3-0.7,3.2c0,1.1,0.5,1.9,1.5,2.4c1,0.5,2,0.7,3,0.7c1.6,0,2.8-0.4,3.6-1.3s1.3-1.9,1.3-3.2c0-1.9-0.5-3.6-1.5-4.9c-1-1.3-2.2-2.4-3.7-3.3c-1.5-0.8-3.1-1.5-4.9-1.9c-1.8-0.4-3.5-0.6-5.2-0.6c-3,0-5.8,0.5-8.5,1.6c-2.7,1.1-5,2.6-6.9,4.5c-2,1.9-3.5,4.2-4.7,6.8c-1.2,2.6-1.7,5.5-1.7,8.5c0,3.9,0.7,7.3,2,9.9c1.3,2.7,3.1,4.9,5.2,6.5c2.1,1.7,4.5,2.9,7,3.6c2.6,0.8,5,1.1,7.4,1.1c3.1,0,5.7-0.5,7.6-1.5s3.5-2.1,4.7-3.4c1.2-1.3,2-2.6,2.5-3.8c0.5-1.3,0.9-2.3,1.1-3L362.6,57.8z"></path>
	<path d="M121,133c-0.8,0.2-1.5,0.4-2.2,0.4c-1.1,0-1.9-0.3-2.4-0.9c-0.6-0.6-0.8-1.8-0.8-3.7v-23.3c0-1.7-0.2-3.3-0.8-4.8c-0.5-1.5-1.3-2.9-2.5-4.1c-1.2-1.2-2.8-2.2-4.7-2.9c-1.9-0.7-4.3-1.1-7.2-1.1c-2.4,0-4.5,0.3-6.3,0.8c-1.8,0.6-3.4,1.3-4.6,2.3c-1.2,1-2.1,2.1-2.8,3.3c-0.6,1.3-0.9,2.6-0.9,3.9c0,1.2,0.2,2.2,0.8,2.9c0.5,0.8,1.8,1.1,3.8,1.1c1.2,0,2.1-0.3,2.7-0.9c0.6-0.6,0.9-1.3,0.9-2.2c0-0.5-0.1-1.3-0.3-2.3s-0.3-2.1-0.3-3.1c0-1.6,0.7-2.8,2-3.5c1.3-0.7,3-1.1,5.1-1.1c1.6,0,2.8,0.2,3.8,0.7c0.9,0.4,1.7,1.1,2.2,1.9c0.5,0.8,0.8,1.9,1,3c0.2,1.2,0.3,2.5,0.3,4c0,1.9-0.1,3.4-0.4,4.5c-0.3,1.1-0.8,2-1.5,2.7c-0.8,0.7-1.8,1.3-3.1,1.8c-1.3,0.5-3,1.1-5.1,1.8c-1.8,0.6-3.5,1.1-5.2,1.6c-1.7,0.5-3.3,1.1-4.7,1.9c-1.4,0.8-2.5,1.8-3.4,3.1c-0.9,1.3-1.3,3.1-1.3,5.2c0,0.9,0.1,2,0.4,3c0.3,1.1,0.9,2.1,1.7,3c0.9,0.9,2.1,1.6,3.7,2.2c1.6,0.6,3.7,0.9,6.3,0.9c2.3,0,4.2-0.3,5.7-0.8s2.7-1.2,3.6-2c0.9-0.8,1.6-1.6,2-2.4c0.4-0.8,0.8-1.5,1-2.1h0.2c0.5,2.3,1.4,4.1,2.8,5.4c1.3,1.3,3.5,1.9,6.5,1.9c1.6,0,3-0.2,4.1-0.7s2.1-1,2.9-1.6l-0.8-1C122.5,132.3,121.8,132.7,121,133z M107.5,120.3c0,1.3-0.1,2.6-0.3,4.2c-0.2,1.5-0.7,3-1.3,4.3s-1.6,2.4-2.9,3.3c-1.3,0.9-3,1.3-5,1.3c-1.4,0-2.6-0.2-3.5-0.8c-0.9-0.5-1.6-1.1-2.1-1.9c-0.5-0.8-0.8-1.7-1-2.7c-0.2-1-0.3-2-0.3-2.9c0-2.2,0.5-4,1.6-5.5c1.1-1.5,2.6-2.6,4.6-3.4l7-2.8c1.9-0.8,3-1.6,3.1-2.4h0.2V120.3z"></path>
	<path d="M169,98.8c-1.8-1.9-3.9-3.4-6.3-4.6c-2.4-1.2-4.9-1.7-7.6-1.7c-3.4,0-6.2,0.9-8.4,2.6c-2.2,1.7-3.7,3.9-4.6,6.5h-0.2v-7.9h-15.1V95h7.2v63.8h-7.2v1.3h22.5v-1.3h-7.2v-32.7h0.2c0.2,0.6,0.5,1.5,1,2.5c0.5,1,1.2,2,2.2,3c0.9,1,2.1,1.8,3.6,2.5c1.5,0.7,3.3,1.1,5.4,1.1c2.7,0,5.4-0.6,7.8-1.8c2.5-1.2,4.6-2.8,6.5-4.8c1.9-2,3.4-4.3,4.5-6.9c1.1-2.6,1.6-5.3,1.6-8.2c0-2.8-0.5-5.5-1.6-8.1C172.3,102.9,170.8,100.7,169,98.8z M165.3,121.3c-0.2,2.7-0.7,4.9-1.4,6.8s-1.9,3.3-3.4,4.3c-1.5,1-3.5,1.5-6.1,1.5c-2.6,0-4.7-0.6-6.3-1.7s-2.8-2.6-3.7-4.4c-0.9-1.8-1.5-3.8-1.8-6c-0.3-2.2-0.5-4.3-0.5-6.4c0-2.4,0-4.5,0.1-6.3s0.3-3.4,0.5-4.7c0.2-1.4,0.6-2.6,1-3.6c0.4-1,1-1.9,1.6-2.8c0.9-1.2,2.2-2.3,3.7-3.1c1.5-0.8,3.4-1.2,5.7-1.2c2.2,0,4,0.4,5.4,1.3c1.4,0.9,2.5,2.1,3.3,3.8c0.8,1.6,1.3,3.6,1.6,5.9c0.3,2.3,0.5,4.9,0.5,7.7C165.6,115.7,165.5,118.6,165.3,121.3z"></path>
	<path d="M205.1,110.8l-6.8-2.2c-2.8-0.9-4.8-1.8-6.2-2.9s-2.1-2.5-2.1-4.5c0-2.2,0.8-4,2.5-5.4c1.7-1.3,4-2,7-2c1.6,0,2.9,0.3,4.1,0.8c1.2,0.6,2.1,1.3,2.9,2.3c0.8,1,1.5,2.1,2,3.4c0.6,1.3,1.1,2.6,1.5,4h1V93.7h-1c-0.3,0.5-0.8,0.8-1.5,0.8c-0.7,0-1.3-0.1-1.8-0.3c-0.5-0.2-1.1-0.4-1.7-0.7c-0.6-0.2-1.4-0.4-2.2-0.7c-0.8-0.2-2-0.3-3.3-0.3c-1.9,0-3.7,0.3-5.4,0.9c-1.7,0.6-3.1,1.5-4.3,2.6c-1.2,1.1-2.1,2.4-2.8,3.9c-0.7,1.5-1,3.1-1,4.9c0,2.1,0.3,3.8,0.9,5.1c0.6,1.3,1.4,2.4,2.3,3.2s2,1.5,3,2c1.1,0.5,2.1,0.9,3,1.2l7.3,2.5c1.6,0.6,3,1.3,4.3,2.3c1.2,1,1.8,2.6,1.8,5c0,2.8-0.8,4.7-2.3,6c-1.6,1.2-3.3,1.8-5.3,1.8c-2.4,0-4.4-0.4-6.1-1.2c-1.7-0.8-3.1-1.9-4.3-3.1c-1.2-1.3-2.1-2.7-2.8-4.2c-0.7-1.5-1.3-3-1.7-4.5h-1v13.1h1c0.2-0.3,0.4-0.6,0.8-0.9c0.3-0.3,0.8-0.4,1.5-0.4c0.7,0,1.4,0.1,2.2,0.4c0.8,0.3,1.7,0.6,2.7,0.9c1,0.3,2,0.6,3.2,0.9c1.2,0.3,2.4,0.4,3.8,0.4c2.4,0,4.5-0.4,6.3-1.1c1.8-0.8,3.4-1.7,4.7-3c1.3-1.2,2.2-2.6,2.9-4.3c0.7-1.6,1-3.3,1-5c0-2.9-0.9-5.2-2.8-6.9C210.5,113.2,208.1,111.8,205.1,110.8z"></path>
</svg>
