<svg xmlns="http://www.w3.org/2000/svg" viewBox="0 0 500 339">
	<path fill="#003473" d="M0 0h500v339H0z"/>
	<circle fill="#D32020" cx="174.7" cy="169.5" r="112.2"/>
	<path fill="#FD9B00" d="M325.4 57.2c-29 0-55.5 11-75.4 29.1-4.1 3.7-7.9 7.6-11.3 11.8h22.7c3.1 3.8 5.9 7.7 8.5 11.9h-39.8c-2.4 3.8-4.5 7.8-6.5 11.9h52.7c1.8 3.9 3.4 7.8 4.8 11.8h-62.2c-1.3 3.9-2.4 7.9-3.2 11.8h68.7c1.7 7.6 2.5 15.6 2.5 23.8 0 12.5-2 24.5-5.8 35.7h-62.2c1.4 4.1 3 8.1 4.8 11.9h52.7c-1.9 4.1-4.1 8.1-6.5 11.9h-39.8c2.6 4.1 5.4 8.1 8.5 11.8h22.7c-3.5 4.2-7.3 8.2-11.4 11.9 19.9 18 46.4 29.1 75.4 29.1 62 0 112.2-50.2 112.2-112.2.1-61.9-50.1-112.2-112.1-112.2z"/>
	<g fill="#FFF">
		<path d="M122 199.1h-12.2l7-43.9-15.6 43.9h-8.3l-1.1-43.6-7.3 43.6H73.1l9.6-57h17.5l.5 35.3 11.8-35.3h19M152 178.4c-1.3-.1-1.9-.2-2.7-.2-6.9 0-10.4 2.3-10.4 7 0 2.9 1.7 4.8 4.3 4.8 5 0 8.6-4.7 8.8-11.6zm8.9 20.7h-10.1l.2-4.8c-3.1 3.8-7.2 5.6-12.7 5.6-6.6 0-11.2-5.2-11.2-12.7 0-11.3 7.9-17.8 21.4-17.8 1.4 0 3.2.1 5 .3.3-1.5.5-2.2.5-3 0-3-2.1-4.2-7.8-4.2-6-.1-10.9 1.4-12.9 2.1.1-.8 1.7-10.4 1.7-10.4 6.1-1.8 10.1-2.5 14.6-2.5 10.5 0 16 4.7 16 13.6 0 2.4-.3 5.3-1 9.2-1.2 6.6-3.5 21-3.7 24.6zM324.3 143.6l-2 12.3c-4.3-2.2-7.5-3.1-10.9-3.1-9.1 0-15.5 8.8-15.5 21.4 0 8.6 4.3 13.8 11.4 13.8 3 0 6.3-.9 10.3-2.9l-2.1 13c-4.5 1.2-7.4 1.7-10.7 1.7-13.1 0-21.3-9.4-21.3-24.6 0-20.3 11.3-34.6 27.4-34.6 5.3.1 11.6 2.3 13.4 3zM344 178.4c-1.2-.1-1.9-.2-2.7-.2-6.9 0-10.4 2.3-10.4 7 0 2.9 1.7 4.8 4.3 4.8 5 0 8.5-4.7 8.8-11.6zm8.8 20.7h-10.1l.2-4.8c-3.1 3.8-7.2 5.6-12.7 5.6-6.6 0-11.2-5.2-11.2-12.7 0-11.3 7.9-17.8 21.4-17.8 1.4 0 3.2.1 5 .3.3-1.5.5-2.2.5-3 0-3-2.1-4.2-7.8-4.2-5.9-.1-10.9 1.4-12.9 2.1.1-.8 1.7-10.4 1.7-10.4 6.1-1.8 10.1-2.5 14.6-2.5 10.5 0 16 4.7 16 13.6 0 2.4-.3 5.3-1 9.2-1.1 6.6-3.4 21-3.7 24.6zM215 198.3c-3.3 1-5.9 1.5-8.7 1.5-6.2 0-9.6-3.6-9.6-10.2-.1-2.1.9-7.4 1.7-12.3.7-4.3 5.3-31.6 5.3-31.6h12.1l-1.4 7h6.2l-1.7 11.2h-6.3c-1.4 8.8-3.4 19.8-3.4 21.2 0 2.4 1.3 3.4 4.2 3.4 1.4 0 2.5-.1 3.3-.4l-1.7 10.2z"/>
		<path d="M252.1 197.9c-9.3 2.9-18.2 2.1-29.2-.3-9.9-24.4.8-46 17.4-46 10 0 16.4 6.5 16.4 16.7 0 3.4-.4 6.7-1.5 11.4h-24.1c-.8 6.8 3.5 9.5 10.5 9.5 4.3 0 8.3-.9 12.6-2.9l-2.1 11.6zm-6.8-27.4c.1-1 1.3-8.3-5.6-8.3-3.9 0-6.6 3-7.7 8.3h13.3zM168.2 167.4c0 5.9 2.8 9.9 9.3 13 5 2.3 5.7 3 5.7 5.1 0 2.9-2.2 4.2-7 4.2-3.7 0-7-.6-11-1.8 0 0-1.6 10.2-1.7 10.7 2.8.6 5.2 1.2 12.7 1.4 12.9 0 18.8-4.9 18.8-15.5 0-6.3-2.5-10.1-8.6-12.9-5.1-2.3-5.7-2.9-5.7-5 0-2.5 2-3.8 6-3.8 2.4 0 5.6.3 8.7.7l1.7-10.7c-3.2-.5-7.9-.9-10.7-.9-13.5-.2-18.3 6.9-18.2 15.5zM417.3 199.1h-11.5l.6-4.3c-3.4 3.6-6.8 5.1-11.2 5.1-8.9 0-14.7-7.6-14.7-19.2 0-15.4 9.1-28.4 19.8-28.4 4.8 0 8.3 1.9 11.6 6.3l2.7-16.5h12.1l-9.4 57zm-18-10.8c5.6 0 9.6-6.4 9.6-15.6 0-5.9-2.3-9.1-6.5-9.1-5.5 0-9.4 6.5-9.4 15.6.1 6.1 2.2 9.1 6.3 9.1zM363.8 152.8c-1.5 14.3-4.2 28.9-6.3 43.2l-.6 3.1h12.2c4.3-28.3 5.4-33.8 12.3-33.1 1.1-5.8 3.1-10.9 4.6-13.4-5.1-1-7.9 1.8-11.7 7.3.3-2.3.8-4.7.8-7l-11.3-.1zM263.5 152.8c-1.5 14.3-4.3 28.9-6.3 43.2l-.6 3.1h12.2c4.3-28.3 5.4-33.8 12.3-33.1 1.1-5.8 3.1-10.9 4.6-13.4-5.1-1-7.9 1.8-11.7 7.3.3-2.3.8-4.7.8-7l-11.3-.1z"/>
	</g>
</svg>
