<svg xmlns="http://www.w3.org/2000/svg" viewBox="0 0 500 339">
	<path fill="#FFF" d="M0 62.5h500v214H0z"/>
	<path fill="#004D90" d="M200.2 108l-51.7 123.3h-33.8l-25.4-98.4c-1.4-6-2.9-8.4-7.7-10.8-7.7-4.1-20.4-8.1-31.4-10.5l.8-3.6h54.4c6.9 0 13.2 4.5 14.6 12.5l13.4 71.6 33-83.8h33.8v-.3zm131.9 83.1c.2-32.6-45-34.2-44.5-48.9 0-4.3 4.3-9.1 13.4-10.3 4.5-.5 17.2-1 31.4 5.5l5.5-26.1c-7.7-2.9-17.5-5.5-29.9-5.5-31.6 0-53.6 16.8-53.9 40.7-.2 17.7 15.8 27.5 27.8 33.5 12.5 6 16.5 9.8 16.5 15.3 0 8.4-9.8 12-19.2 12-16 .2-25.4-4.3-32.8-7.9l-5.7 27.1c7.4 3.4 21.3 6.5 35.4 6.5 34 .2 56-16.3 56-41.9m83.4 40.2H445L419.1 108h-27.3c-6.2 0-11.3 3.6-13.6 9.1l-47.9 114.2h33.5l6.7-18.4h40.9l4.1 18.4zm-35.7-43.6l16.8-46.2 9.6 46.2h-26.4zM245.7 108l-26.3 123.3h-31.8L213.8 108h31.9zM0-.1h500v62.6H0z"/>
	<path fill="#FEA508" d="M0 276.5h500v62.6H0z"/>
</svg>
